<mxfile host="Electron" agent="Mozilla/5.0 (Windows NT 10.0; Win64; x64) AppleWebKit/537.36 (KHTML, like Gecko) draw.io/28.1.2 Chrome/138.0.7204.243 Electron/37.4.0 Safari/537.36" version="28.1.2">
  <diagram name="Pagina-1" id="UWZ7ciLxbE4Q8fSEAiAS">
    <mxGraphModel dx="709" dy="421" grid="1" gridSize="10" guides="1" tooltips="1" connect="1" arrows="1" fold="1" page="1" pageScale="1" pageWidth="827" pageHeight="1169" math="0" shadow="0">
      <root>
        <mxCell id="0" />
        <mxCell id="1" parent="0" />
        <mxCell id="kaIO7Y_INT-tP5cUl1Rt-1" value="Studente" style="swimlane;fontStyle=0;childLayout=stackLayout;horizontal=1;startSize=26;fillColor=none;horizontalStack=0;resizeParent=1;resizeParentMax=0;resizeLast=0;collapsible=1;marginBottom=0;whiteSpace=wrap;html=1;" parent="1" vertex="1">
          <mxGeometry x="50" y="30" width="140" height="110" as="geometry">
            <mxRectangle x="50" y="30" width="90" height="30" as="alternateBounds" />
          </mxGeometry>
        </mxCell>
        <mxCell id="kaIO7Y_INT-tP5cUl1Rt-2" value="&lt;div&gt;int: ID&lt;/div&gt;&lt;div&gt;String: nome&lt;/div&gt;&lt;div&gt;String: cognome&lt;/div&gt;&lt;div&gt;List: CorsiIscritti&lt;/div&gt;" style="text;strokeColor=none;fillColor=none;align=left;verticalAlign=top;spacingLeft=4;spacingRight=4;overflow=hidden;rotatable=0;points=[[0,0.5],[1,0.5]];portConstraint=eastwest;whiteSpace=wrap;html=1;" parent="kaIO7Y_INT-tP5cUl1Rt-1" vertex="1">
          <mxGeometry y="26" width="140" height="84" as="geometry" />
        </mxCell>
        <mxCell id="kaIO7Y_INT-tP5cUl1Rt-15" value="Iscrizione" style="swimlane;fontStyle=0;childLayout=stackLayout;horizontal=1;startSize=26;fillColor=none;horizontalStack=0;resizeParent=1;resizeParentMax=0;resizeLast=0;collapsible=1;marginBottom=0;whiteSpace=wrap;html=1;" parent="1" vertex="1">
          <mxGeometry x="280" y="210" width="140" height="130" as="geometry">
            <mxRectangle x="50" y="30" width="90" height="30" as="alternateBounds" />
          </mxGeometry>
        </mxCell>
        <mxCell id="kaIO7Y_INT-tP5cUl1Rt-16" value="&lt;div&gt;&amp;nbsp;int: studenteId&lt;/div&gt;&lt;div&gt;&amp;nbsp;int: corsoID&lt;/div&gt;&lt;div&gt;String: dataDiIscrizione&lt;/div&gt;&lt;div&gt;&lt;span style=&quot;background-color: transparent; color: light-dark(rgb(0, 0, 0), rgb(255, 255, 255));&quot;&gt;String: stato&lt;/span&gt;&lt;/div&gt;&lt;div&gt;&lt;span style=&quot;background-color: transparent; color: light-dark(rgb(0, 0, 0), rgb(255, 255, 255));&quot;&gt;stu: Studente&lt;/span&gt;&lt;/div&gt;&lt;div&gt;&lt;span style=&quot;background-color: transparent; color: light-dark(rgb(0, 0, 0), rgb(255, 255, 255));&quot;&gt;cor: Corso&lt;/span&gt;&lt;/div&gt;" style="text;strokeColor=none;fillColor=none;align=left;verticalAlign=top;spacingLeft=4;spacingRight=4;overflow=hidden;rotatable=0;points=[[0,0.5],[1,0.5]];portConstraint=eastwest;whiteSpace=wrap;html=1;" parent="kaIO7Y_INT-tP5cUl1Rt-15" vertex="1">
          <mxGeometry y="26" width="140" height="104" as="geometry" />
        </mxCell>
        <mxCell id="kaIO7Y_INT-tP5cUl1Rt-17" value="Corso" style="swimlane;fontStyle=0;childLayout=stackLayout;horizontal=1;startSize=26;fillColor=none;horizontalStack=0;resizeParent=1;resizeParentMax=0;resizeLast=0;collapsible=1;marginBottom=0;whiteSpace=wrap;html=1;" parent="1" vertex="1">
          <mxGeometry x="610" y="20" width="140" height="110" as="geometry">
            <mxRectangle x="50" y="30" width="90" height="30" as="alternateBounds" />
          </mxGeometry>
        </mxCell>
        <mxCell id="kaIO7Y_INT-tP5cUl1Rt-18" value="&lt;div&gt;int: Id&lt;/div&gt;&lt;div&gt;String: NomeCorso&lt;/div&gt;&lt;div&gt;String: Descrizione&lt;/div&gt;&lt;div&gt;&lt;br&gt;&lt;/div&gt;" style="text;strokeColor=none;fillColor=none;align=left;verticalAlign=top;spacingLeft=4;spacingRight=4;overflow=hidden;rotatable=0;points=[[0,0.5],[1,0.5]];portConstraint=eastwest;whiteSpace=wrap;html=1;" parent="kaIO7Y_INT-tP5cUl1Rt-17" vertex="1">
          <mxGeometry y="26" width="140" height="84" as="geometry" />
        </mxCell>
        <mxCell id="YrBcTHkoLwgOEJSfKYCq-1" style="edgeStyle=orthogonalEdgeStyle;rounded=0;orthogonalLoop=1;jettySize=auto;html=1;entryX=1.002;entryY=0.381;entryDx=0;entryDy=0;entryPerimeter=0;endArrow=diamondThin;endFill=1;" edge="1" parent="1" source="kaIO7Y_INT-tP5cUl1Rt-18" target="kaIO7Y_INT-tP5cUl1Rt-2">
          <mxGeometry relative="1" as="geometry" />
        </mxCell>
        <mxCell id="YrBcTHkoLwgOEJSfKYCq-2" value="1,*" style="text;html=1;align=center;verticalAlign=middle;resizable=0;points=[];autosize=1;strokeColor=none;fillColor=none;" vertex="1" parent="1">
          <mxGeometry x="190" y="58" width="40" height="30" as="geometry" />
        </mxCell>
        <mxCell id="YrBcTHkoLwgOEJSfKYCq-3" value="" style="endArrow=classic;html=1;rounded=0;entryX=0.5;entryY=1;entryDx=0;entryDy=0;entryPerimeter=0;" edge="1" parent="1" target="kaIO7Y_INT-tP5cUl1Rt-2">
          <mxGeometry width="50" height="50" relative="1" as="geometry">
            <mxPoint x="120" y="308.49" as="sourcePoint" />
            <mxPoint x="118.60000000000002" y="150.00199999999995" as="targetPoint" />
            <Array as="points">
              <mxPoint x="280" y="308.49" />
              <mxPoint x="120" y="308.49" />
            </Array>
          </mxGeometry>
        </mxCell>
        <mxCell id="YrBcTHkoLwgOEJSfKYCq-4" value="1" style="text;html=1;align=center;verticalAlign=middle;resizable=0;points=[];autosize=1;strokeColor=none;fillColor=none;" vertex="1" parent="1">
          <mxGeometry x="95" y="138" width="30" height="30" as="geometry" />
        </mxCell>
        <mxCell id="YrBcTHkoLwgOEJSfKYCq-6" value="" style="endArrow=classic;html=1;rounded=0;" edge="1" parent="1">
          <mxGeometry width="50" height="50" relative="1" as="geometry">
            <mxPoint x="680" y="320" as="sourcePoint" />
            <mxPoint x="680" y="128" as="targetPoint" />
            <Array as="points">
              <mxPoint x="420" y="320" />
              <mxPoint x="680" y="320" />
            </Array>
          </mxGeometry>
        </mxCell>
        <mxCell id="YrBcTHkoLwgOEJSfKYCq-7" value="1" style="text;html=1;align=center;verticalAlign=middle;resizable=0;points=[];autosize=1;strokeColor=none;fillColor=none;" vertex="1" parent="1">
          <mxGeometry x="675" y="128" width="30" height="30" as="geometry" />
        </mxCell>
      </root>
    </mxGraphModel>
  </diagram>
</mxfile>
